######## ######## ######## ##          ######## ########  ######## ######## 
##       ##       ##       ##          ##       ##     ## ##       ##       
##       ##       ##       ##          ##       ##     ## ##       ##       
######   ######   ######   ##          ######   ########  ######   ######   
##       ##       ##       ##          ##       ##   ##   ##       ##       
##       ##       ##       ##          ##       ##    ##  ##       ##       
##       ######## ######## ########    ##       ##     ## ######## ######## 

Genre:Horror
Language:English
IMDb: 
http://www.imdb.com/title/tt1334536/
Source:DVD
Subtitles:Romana

Format : MPEG-4
Format profile : Base Media
Codec ID : isom
File size : 1.31 GiB
Duration : 1h 30mn
Overall bit rate : 2 067 Kbps

Video
Format profile : High@L4.1
Format settings, CABAC : Yes
Format settings, ReFrames : 3 frames
Format settings, GOP : N=1
Codec ID : avc1
Codec ID/Info : Advanced Video Coding
Duration : 1h 30mn
Bit rate mode : Variable
Bit rate : 1 621 Kbps
Maximum bit rate : 18.4 Mbps
Width : 720 pixels
Height : 392 pixels
Display aspect ratio : 16:9
Frame rate mode : Constant
Frame rate : 23.976 fps
Color space : YUV
Chroma subsampling : 4:2:0
Bit depth : 8 bits
Scan type : Progressive
Bits/(Pixel*Frame) : 0.240
Stream size : 1.02 GiB (78%)
Writing library : x264

Audio
ID : 2
Format : AAC
Format/Info : Advanced Audio Codec
Format version : Version 4
Format profile : LC
Format settings, SBR : No
Codec ID : 40
Duration : 1h 30mn
Bit rate mode : Variable
Bit rate : 445 Kbps
Maximum bit rate : 515 Kbps
Channel(s) : 6 channels
Channel positions : Front: L C R, Side: L R, LFE
Sampling rate : 48.0 KHz
Stream size : 288 MiB (22%)


Plot:
Corin Nemec (Mansquito, SS Doomtrooper) co-stars alongside Carpenter as TV ghost hunters that enter a reportedly haunted house that may prove to be the death of them.


Greets:

INK,CRYS,IMAGINE,LKRG,FXG,3Li,FLAWL3SS,TA,iLLUSiON,ViSiON,DTRG SAFCuk009,LU,TheFalcon007,MYSTiC,PrisM,Noir,WBZ,LAP,Rx,Kingdom,SAFCuk009+Fabreezy,HDLiTE,TWiZTED,ExtraTorrentRG.ELEKTRI4KA,MAGNAT,CM8
And to all the other p2p grps past and present






================================== 
http://thepiratebay.org/user/hiest
==================================






Screen Shots:
 
http://www.pix2links.com/images/23084447450520886648.png
 
http://www.pix2links.com/images/11990590086600801678.png
 
http://www.pix2links.com/images/09857221413343170764.png
 
http://www.pix2links.com/images/70826611249792154659.png
 
http://www.pix2links.com/images/25011498569807498825.png

######## ######## ######## ##          ######## ########  ######## ######## 
##       ##       ##       ##          ##       ##     ## ##       ##       
##       ##       ##       ##          ##       ##     ## ##       ##       
######   ######   ######   ##          ######   ########  ######   ######   
##       ##       ##       ##          ##       ##   ##   ##       ##       
##       ##       ##       ##          ##       ##    ##  ##       ##       
##       ######## ######## ########    ##       ##     ## ######## ######## 

